<svg width="149" height="201" viewBox="0 0 149 201" fill="none" xmlns="http://www.w3.org/2000/svg">
<path d="M66.3103 91.4842L123.902 117.471L149 86.1807L98.2766 14.0541C98.2766 11.6675 98.2766 9.281 98.5408 7.15963C98.805 4.77309 98.805 2.65171 98.805 0.26517V0H98.5408C67.367 3.44723 -4.22695 22.2744 1.32092 124.896V125.161H3.17022C40.6844 125.426 109.637 128.343 113.599 180.847H20.3422V164.141H22.1915C61.8192 164.141 80.3121 164.141 89.0302 164.141H89.5585H89.2943C76.0851 145.844 35.6649 143.988 12.945 143.988C6.07625 143.988 1.32092 144.253 0.264185 144.253H0V201H136.583V200.735C136.583 199.674 136.583 198.613 136.583 197.022C136.583 171.566 134.734 108.985 22.7199 104.743C23.7766 41.8971 71.3298 23.8654 80.3121 23.6003C94.3138 42.1623 126.28 84.3245 126.544 84.5897L117.298 95.9921L84.8032 80.6121L85.5957 72.9221L69.2163 66.2929L66.3103 91.4842Z" fill="#5B7BBB"/>
</svg>
